# xmcd CD database file
#
# Track frame offsets:
#	150
#	12450
#	34487
#	53512
#	75500
#	91637
#	108525
#	119650
#	130975
#	148625
#	162675
#	182775
#
# Disc length: 2699 seconds
#
# Revision: 0
# Processed by: cddbd v1.5PL3 Copyright (c) Steve Scherf et al.
# Submitted via: CDex 1.50beta10
#
DISCID=a40a890c
DTITLE=Various Artist - JAZZ PIANO
DYEAR=1997
DGENRE=Jazz
TTITLE0=THE DAYS OF WINE AND ROSES
TTITLE1=YOU LOOK GOOD TO ME
TTITLE2=STELLA BY STARLIGHT
TTITLE3=ON A CLEAR DAY(YOU CAN SEE FOREVER)
TTITLE4=ODD NUMBER
TTITLE5=RED SAILS IN THE SUNSET
TTITLE6=TEMPUS FUGUE-IT
TTITLE7=PARISIAN THOROUPHFARE
TTITLE8=ON THE TRAIL
TTITLE9=THE LITTLE THINGS THAT MEAN SO MUCH
TTITLE10=LOVE FOR SALE
TTITLE11=WHISPER NOT
EXTD=YEAR: 1997
EXTT0=
EXTT1=
EXTT2=
EXTT3=
EXTT4=
EXTT5=
EXTT6=
EXTT7=
EXTT8=
EXTT9=
EXTT10=
EXTT11=
PLAYORDER=
